<?xml version="1.0" standalone="no"?>
<!DOCTYPE svg PUBLIC "-//W3C//DTD SVG 20010904//EN"
 "http://www.w3.org/TR/2001/REC-SVG-20010904/DTD/svg10.dtd">
<svg version="1.0" xmlns="http://www.w3.org/2000/svg"
 width="343.000000pt" height="343.000000pt" viewBox="0 0 343.000000 343.000000"
 preserveAspectRatio="xMidYMid meet">
<metadata>
Created by potrace 1.11, written by Peter Selinger 2001-2013
</metadata>
<g transform="translate(0.000000,343.000000) scale(0.100000,-0.100000)"
fill="#000000" stroke="none">
<path d="M1620 2852 c-161 -54 -252 -115 -352 -238 -68 -84 -97 -141 -133
-259 -29 -95 -31 -117 -20 -282 8 -119 1 -151 -76 -308 -44 -91 -92 -206 -124
-295 -45 -128 -53 -159 -48 -203 5 -46 5 -47 -51 -100 -71 -69 -131 -190 -121
-244 6 -32 4 -34 -37 -53 -24 -11 -53 -20 -65 -20 -25 0 -63 -42 -83 -91 -8
-19 -58 -99 -110 -179 -98 -147 -180 -290 -180 -311 0 -9 -60 -186 -87 -255
-4 -12 169 -14 1172 -14 l1177 0 -5 28 -6 27 12 -27 11 -28 227 0 228 0 -6 35
c-5 31 -3 35 16 35 31 0 71 43 71 77 0 16 9 45 20 66 11 20 19 37 18 38 -2 0
-14 2 -28 5 -53 9 -55 13 -24 45 16 17 56 43 89 59 52 25 62 27 76 14 37 -34
54 -8 74 109 13 79 13 83 -7 100 -12 10 -29 15 -40 11 -25 -8 -48 12 -48 42 0
29 23 32 42 5 15 -21 78 -39 78 -22 0 6 -7 28 -15 49 -12 30 -13 45 -5 67 10
25 8 31 -9 45 -14 10 -19 22 -15 36 3 13 -4 35 -21 60 -22 32 -26 47 -22 87 3
39 -1 55 -23 90 -46 72 -61 81 -132 74 -54 -5 -65 -3 -92 18 -41 31 -74 85
-52 85 8 0 26 -4 40 -10 14 -5 26 -7 26 -4 0 3 -14 10 -31 16 -28 10 -30 14
-24 42 19 92 17 122 -11 167 -15 24 -46 65 -70 91 -24 25 -46 59 -50 75 -16
73 -57 191 -73 213 -10 14 -25 45 -34 70 -8 25 -39 99 -67 165 -29 66 -60 151
-70 188 -42 159 -237 444 -368 538 -81 57 -180 85 -332 93 -119 6 -129 5 -210
-22z m227 -227 c15 -8 58 -28 95 -45 55 -25 84 -49 172 -141 121 -127 160
-182 182 -254 19 -63 54 -265 54 -311 0 -50 -38 -256 -61 -329 -30 -100 -70
-139 -250 -250 -41 -25 -49 -45 -17 -45 13 0 34 -7 47 -16 20 -15 22 -22 16
-58 -7 -39 -8 -65 -4 -118 1 -13 -1 -97 -5 -188 -7 -147 -6 -171 11 -225 l19
-60 46 3 c40 2 49 -1 67 -24 29 -37 29 -99 -2 -118 -46 -31 -158 -49 -297 -50
-125 -1 -140 1 -200 26 -35 15 -66 25 -68 23 -3 -3 3 -7 12 -11 9 -3 16 -12
16 -19 0 -15 -243 229 -293 295 -48 63 -129 225 -125 251 2 15 17 27 53 41 28
11 65 31 83 45 26 20 40 24 67 19 50 -10 57 11 49 141 l-7 107 -47 48 c-26 27
-62 76 -79 108 -18 34 -39 60 -48 60 -11 0 -13 3 -5 13 7 8 -6 58 -45 172 -50
147 -55 169 -60 276 -6 122 13 262 44 322 36 71 122 193 144 205 27 14 207 72
223 72 6 0 25 8 41 17 17 9 53 19 80 23 28 4 53 8 57 9 3 0 19 -6 35 -14z
m903 -973 c0 -15 -2 -15 -10 -2 -13 20 -13 33 0 25 6 -3 10 -14 10 -23z m-350
-43 c0 -5 -4 -9 -10 -9 -5 0 -10 7 -10 16 0 8 5 12 10 9 6 -3 10 -10 10 -16z
m400 -80 c0 -5 -4 -9 -10 -9 -5 0 -10 7 -10 16 0 8 5 12 10 9 6 -3 10 -10 10
-16z m-1446 -55 c11 -29 6 -44 -14 -44 -11 0 -20 6 -20 14 0 21 11 46 20 46 4
0 11 -7 14 -16z m1432 -139 c11 -27 -2 -37 -14 -11 -7 16 -8 26 -1 26 5 0 12
-7 15 -15z m314 -282 c30 -37 38 -82 15 -90 -10 -3 -75 99 -75 118 0 21 31 6
60 -28z m-75 -113 c3 -5 1 -10 -4 -10 -6 0 -11 5 -11 10 0 6 2 10 4 10 3 0 8
-4 11 -10z m58 -330 c18 -30 14 -36 -17 -24 -16 6 -23 54 -8 54 4 0 16 -13 25
-30z m37 -3 c0 -5 -4 -5 -10 -2 -5 3 -10 14 -10 23 0 15 2 15 10 2 5 -8 10
-19 10 -23z m60 -97 c0 -22 -7 -25 -29 -11 -16 10 -6 31 15 31 8 0 14 -9 14
-20z m30 -111 c0 -18 -2 -19 -15 -9 -15 12 -12 30 6 30 5 0 9 -10 9 -21z
m-743 -271 c-3 -8 -6 -5 -6 6 -1 11 2 17 5 13 3 -3 4 -12 1 -19z"/>
<path d="M1935 2265 c-56 -23 -105 -63 -105 -86 0 -18 51 -8 111 22 74 38 122
36 188 -5 24 -15 45 -26 47 -24 2 2 -6 19 -16 36 -20 32 -84 68 -140 78 -14 2
-52 -7 -85 -21z"/>
<path d="M1386 2170 c-31 -10 -63 -35 -78 -63 -9 -18 -8 -18 24 0 25 13 56 18
125 18 92 0 116 6 96 26 -24 24 -114 34 -167 19z"/>
<path d="M2005 2155 c-5 -2 -26 -6 -46 -9 -21 -4 -53 -17 -72 -31 -20 -13 -48
-25 -64 -27 -25 -3 -29 -8 -37 -51 -10 -53 3 -82 26 -59 7 7 20 12 29 12 9 0
19 9 22 21 5 20 10 20 106 14 95 -7 179 3 204 25 30 26 -120 120 -168 105z
m-55 -90 c0 -16 -6 -25 -15 -25 -21 0 -31 30 -14 41 23 14 29 11 29 -16z"/>
<path d="M1413 2056 c-22 -10 -40 -30 -55 -60 -12 -25 -20 -47 -17 -50 2 -2
47 -5 99 -7 93 -3 154 5 176 22 16 13 5 65 -18 86 -26 23 -140 29 -185 9z m37
-77 c0 -22 -13 -25 -29 -6 -8 10 -7 17 1 25 15 15 28 6 28 -19z"/>
<path d="M1884 1841 c28 -29 29 -36 11 -86 -5 -16 -2 -14 18 7 30 32 26 59
-11 88 -38 30 -49 24 -18 -9z"/>
<path d="M1825 1750 c-3 -5 1 -10 9 -10 8 0 18 5 21 10 3 6 -1 10 -9 10 -8 0
-18 -4 -21 -10z"/>
<path d="M1840 1628 c-19 -5 -41 -15 -49 -21 -8 -7 -36 -13 -63 -14 -59 -2
-148 -22 -148 -33 0 -4 13 -13 29 -20 16 -6 37 -20 47 -31 20 -22 39 -25 31
-5 -3 8 1 17 9 20 26 10 154 7 154 -4 0 -36 119 22 158 78 l22 29 -38 7 c-51
8 -111 6 -152 -6z m-30 -58 c0 -5 -5 -10 -11 -10 -5 0 -7 5 -4 10 3 6 8 10 11
10 2 0 4 -4 4 -10z"/>
</g>
</svg>
